<svg width="164" height="60" viewBox="0 0 164 60" fill="none" xmlns="http://www.w3.org/2000/svg">
<path d="M13.9905 24.4895C16.4585 24.4895 18.3783 23.314 19.5535 21.4336V18.0256L14.2257 18.9265C11.7577 19.3574 10.7392 20.4154 10.7392 21.9039C10.7392 23.4316 11.9535 24.4895 13.9905 24.4895ZM6.66504 22.0606C6.66504 19.0832 8.97635 16.9286 13.1681 16.2237L19.5535 15.1657V14.1472C19.5535 11.7186 17.7513 10.2298 15.2051 10.2298C13.0505 10.2298 11.3661 11.2092 10.23 12.8153L7.21354 10.504C8.97635 8.1536 11.7968 6.66504 15.3227 6.66504C20.6502 6.66504 23.5882 9.79911 23.5882 14.1472V27.1923H19.5535V24.9595C18.1431 26.6832 15.6751 27.78 13.2463 27.78C9.32881 27.78 6.66504 25.5471 6.66504 22.0606Z" fill="#274085"/>
<path d="M25.7837 7.44842H29.8187V9.36818C31.3073 7.80115 33.2661 6.66504 36.0866 6.66504C40.435 6.66504 43.7648 9.60306 43.7648 15.3224V27.1923H39.6907V15.4794C39.6907 12.3453 37.967 10.4649 35.1463 10.4649C32.4434 10.4649 30.8373 12.1495 29.8187 13.873V27.1923H25.7837V7.44842Z" fill="#274085"/>
<path d="M22.9963 46.6532L26.2465 49.1409C24.4009 51.6288 21.4314 53.2338 17.6999 53.2338C10.9185 53.2338 6.66504 48.218 6.66504 42.3196C6.66504 36.4208 10.9185 31.4053 17.6999 31.4053C21.3915 31.4053 24.4009 33.01 26.2465 35.4983L22.9963 37.9859C21.8727 36.4208 20.0271 35.2973 17.6999 35.2973C13.8076 35.2973 10.9987 38.3469 10.9987 42.3196C10.9987 46.3322 13.8076 49.3415 17.7398 49.3415C20.0271 49.3415 21.8727 48.218 22.9963 46.6532Z" fill="#274085"/>
<path d="M32.6246 36.3497H28.2412V32.7065H32.6246V27.7705H36.6987V32.7065H43.7636V36.3497H36.6987V45.5949C36.6987 48.2587 38.1091 49.1208 40.3028 49.1208C41.6347 49.1208 43.0587 48.9639 43.7636 48.6896V52.2546C42.8236 52.6465 41.2038 52.8422 39.6761 52.8422C35.0535 52.8422 32.6246 50.4134 32.6246 45.5949V36.3497Z" fill="#274085"/>
<path d="M46.504 3.95436V6.66598H50.4297V2.86173C50.4297 1.48856 49.2088 0.0888652 47.8389 0H43.7637V3.7862L46.504 3.95436Z" fill="#274085"/>
<path d="M46.504 56.0459V53.334H50.4297V57.1382C50.4297 58.5114 49.2088 59.9111 47.8389 60H43.7637V56.2138L46.504 56.0459Z" fill="#FFCB03"/>
<path d="M3.92538 56.0459V53.334H0V57.1382C0 58.5114 1.2206 59.9111 2.59049 60H6.66571V56.2138L3.92538 56.0459Z" fill="#5B72B7"/>
<path d="M3.92538 3.95436V6.66598H0V2.86173C0 1.48856 1.2206 0.0888652 2.59049 0H6.66571V3.7862L3.92538 3.95436Z" fill="#0A8473"/>
<path d="M65.552 19.033C66.1708 19.033 66.6783 18.7377 66.9829 18.2393V17.3255L65.6075 17.5562C64.9707 17.667 64.6847 17.953 64.6847 18.35C64.6847 18.7468 65.0079 19.033 65.552 19.033ZM63.8906 18.3779C63.8906 17.6763 64.4263 17.1778 65.4136 17.0116L66.9829 16.7534V16.4303C66.9829 15.7841 66.5213 15.415 65.8566 15.415C65.3215 15.415 64.8876 15.6644 64.6015 16.0611L64.0109 15.6089C64.417 15.0552 65.0721 14.7134 65.8845 14.7134C67.066 14.7134 67.7673 15.4057 67.7673 16.4303V19.5498H66.9829V18.9592C66.632 19.4115 66.0228 19.6792 65.4232 19.6792C64.5094 19.6792 63.8906 19.1714 63.8906 18.3779Z" fill="#274085"/>
<path d="M73.6267 16.3562C73.6267 15.7839 73.239 15.3223 72.5652 15.3223C71.8729 15.3223 71.4948 15.7839 71.4948 16.3562C71.4948 16.9285 71.8729 17.3807 72.5652 17.3807C73.239 17.3807 73.6267 16.9192 73.6267 16.3562ZM72.7408 21.2019C73.7188 21.2019 74.3374 20.8142 74.3374 20.205C74.3374 19.762 74.088 19.4112 73.2573 19.4112H71.7529C71.43 19.6513 71.2361 19.928 71.2361 20.2971C71.2361 20.8601 71.8174 21.2019 72.7408 21.2019ZM71.1623 19.2174C70.9501 19.0511 70.8393 18.802 70.8393 18.5529C70.8393 18.1838 71.0327 17.8792 71.393 17.6481C70.9867 17.3438 70.7469 16.873 70.7469 16.3562C70.7469 15.4607 71.4483 14.7041 72.5559 14.7041C72.8975 14.7041 73.2021 14.7779 73.4512 14.898H75.1773V15.581H74.1711C74.3004 15.8118 74.365 16.0792 74.365 16.3562C74.365 17.2424 73.6726 17.9989 72.5559 17.9989C72.3254 17.9989 72.1037 17.9623 71.9101 17.9068C71.7162 18.0452 71.6055 18.2114 71.6055 18.3867C71.6055 18.5805 71.7067 18.7189 71.993 18.7189H73.3221C74.5495 18.7189 75.1218 19.3191 75.1218 20.1498C75.1218 21.1278 74.1435 21.8571 72.7498 21.8571C71.3745 21.8571 70.4702 21.3217 70.4702 20.3896C70.4702 19.9187 70.7004 19.5406 71.1623 19.2174Z" fill="#274085"/>
<path d="M78.058 16.6334H80.8451C80.8175 15.9504 80.3466 15.3781 79.5255 15.3781C78.7594 15.3781 78.224 15.8303 78.058 16.6334ZM79.7377 19.7347C78.1688 19.7347 77.1997 18.5808 77.1997 17.224C77.1997 15.812 78.1039 14.7134 79.5438 14.7134C80.8085 14.7134 81.6298 15.5996 81.6298 16.7442C81.6298 16.9287 81.6022 17.104 81.5746 17.233H78.0025C78.0304 18.35 78.7408 19.0237 79.7377 19.0237C80.3376 19.0237 80.8451 18.7468 81.1497 18.3314L81.7313 18.7837C81.2976 19.3653 80.6053 19.7347 79.7377 19.7347Z" fill="#274085"/>
<path d="M84.6206 14.8982H85.4054V15.4243C85.7835 15.009 86.2637 14.7134 86.956 14.7134C87.9989 14.7134 88.774 15.415 88.774 16.7349V19.5498H87.9896V16.7625C87.9896 15.9318 87.519 15.4519 86.799 15.4519C86.1253 15.4519 85.7007 15.8396 85.4054 16.3288V19.5498H84.6206V14.8982Z" fill="#274085"/>
<path d="M95.4822 18.3131L96.1004 18.7837C95.6665 19.3653 94.9927 19.7347 94.1437 19.7347C92.6024 19.7347 91.6147 18.5808 91.6147 17.224C91.6147 15.8673 92.6024 14.7134 94.1437 14.7134C94.9837 14.7134 95.6665 15.0921 96.1004 15.6644L95.4822 16.1349C95.1959 15.7289 94.725 15.4519 94.1437 15.4519C93.1468 15.4519 92.4364 16.2364 92.4364 17.224C92.4364 18.2207 93.1468 18.9961 94.153 18.9961C94.725 18.9961 95.1959 18.7191 95.4822 18.3131Z" fill="#274085"/>
<path d="M99.1195 16.6334H101.907C101.879 15.9504 101.408 15.3781 100.587 15.3781C99.8209 15.3781 99.2855 15.8303 99.1195 16.6334ZM100.799 19.7347C99.2303 19.7347 98.2612 18.5808 98.2612 17.224C98.2612 15.812 99.1655 14.7134 100.605 14.7134C101.87 14.7134 102.691 15.5996 102.691 16.7442C102.691 16.9287 102.664 17.104 102.636 17.233H99.064C99.0919 18.35 99.8023 19.0237 100.799 19.0237C101.399 19.0237 101.907 18.7468 102.211 18.3314L102.793 18.7837C102.359 19.3653 101.667 19.7347 100.799 19.7347Z" fill="#274085"/>
<path d="M109.834 14.8982H110.619V15.4243C110.997 15.009 111.477 14.7134 112.169 14.7134C113.212 14.7134 113.988 15.415 113.988 16.7349V19.5498H113.203V16.7625C113.203 15.9318 112.732 15.4519 112.012 15.4519C111.339 15.4519 110.914 15.8396 110.619 16.3288V19.5498H109.834V14.8982Z" fill="#274085"/>
<path d="M118.62 19.033C119.238 19.033 119.746 18.7377 120.05 18.2393V17.3255L118.675 17.5562C118.039 17.667 117.752 17.953 117.752 18.35C117.752 18.7468 118.075 19.033 118.62 19.033ZM116.958 18.3779C116.958 17.6763 117.494 17.1778 118.482 17.0116L120.05 16.7534V16.4303C120.05 15.7841 119.589 15.415 118.924 15.415C118.389 15.415 117.955 15.6644 117.669 16.0611L117.079 15.6089C117.485 15.0552 118.14 14.7134 118.952 14.7134C120.134 14.7134 120.835 15.4057 120.835 16.4303V19.5498H120.05V18.9592C119.7 19.4115 119.091 19.6792 118.491 19.6792C117.577 19.6792 116.958 19.1714 116.958 18.3779Z" fill="#274085"/>
<path d="M124.34 15.6089H123.463V14.8983H124.34V13.7354H125.134V14.8983H126.749V15.6089H125.134V17.9902C125.134 18.7192 125.503 18.9223 126.066 18.9223C126.371 18.9223 126.583 18.8854 126.758 18.8116V19.513C126.537 19.6054 126.288 19.6423 125.955 19.6423C124.922 19.6423 124.34 19.1255 124.34 17.9902V15.6089Z" fill="#274085"/>
<path d="M129.612 14.8968H130.397V19.5485H129.612V14.8968ZM129.455 13.1338C129.455 12.8385 129.704 12.5894 130.009 12.5894C130.313 12.5894 130.553 12.8385 130.553 13.1338C130.553 13.4384 130.313 13.6875 130.009 13.6875C129.704 13.6875 129.455 13.4384 129.455 13.1338Z" fill="#274085"/>
<path d="M137.53 17.224C137.53 16.255 136.82 15.4519 135.851 15.4519C134.854 15.4519 134.143 16.255 134.143 17.224C134.143 18.1931 134.854 18.9961 135.851 18.9961C136.82 18.9961 137.53 18.184 137.53 17.224ZM138.361 17.224C138.361 18.5808 137.337 19.7347 135.841 19.7347C134.337 19.7347 133.322 18.5808 133.322 17.224C133.322 15.8673 134.337 14.7134 135.841 14.7134C137.337 14.7134 138.361 15.8673 138.361 17.224Z" fill="#274085"/>
<path d="M141.286 14.8982H142.071V15.4243C142.449 15.009 142.929 14.7134 143.621 14.7134C144.664 14.7134 145.44 15.415 145.44 16.7349V19.5498H144.655V16.7625C144.655 15.9318 144.184 15.4519 143.464 15.4519C142.79 15.4519 142.366 15.8396 142.071 16.3288V19.5498H141.286V14.8982Z" fill="#274085"/>
<path d="M150.073 19.033C150.691 19.033 151.199 18.7377 151.503 18.2393V17.3255L150.128 17.5562C149.491 17.667 149.205 17.953 149.205 18.35C149.205 18.7468 149.528 19.033 150.073 19.033ZM148.411 18.3779C148.411 17.6763 148.947 17.1778 149.934 17.0116L151.503 16.7534V16.4303C151.503 15.7841 151.042 15.415 150.377 15.415C149.842 15.415 149.408 15.6644 149.122 16.0611L148.531 15.6089C148.937 15.0552 149.593 14.7134 150.405 14.7134C151.587 14.7134 152.288 15.4057 152.288 16.4303V19.5498H151.503V18.9592C151.153 19.4115 150.543 19.6792 149.943 19.6792C149.03 19.6792 148.411 19.1714 148.411 18.3779Z" fill="#274085"/>
<path d="M156.31 12.6274H155.525V19.5496H156.31V12.6274Z" fill="#274085"/>
<path d="M160.095 16.6334H162.882C162.855 15.9504 162.384 15.3781 161.563 15.3781C160.796 15.3781 160.261 15.8303 160.095 16.6334ZM161.775 19.7347C160.206 19.7347 159.237 18.5808 159.237 17.224C159.237 15.812 160.141 14.7134 161.581 14.7134C162.846 14.7134 163.667 15.5996 163.667 16.7442C163.667 16.9287 163.639 17.104 163.612 17.233H160.04C160.068 18.35 160.778 19.0237 161.775 19.0237C162.375 19.0237 162.882 18.7468 163.187 18.3314L163.768 18.7837C163.335 19.3653 162.643 19.7347 161.775 19.7347Z" fill="#274085"/>
<path d="M66.2423 30.5316C66.8886 30.5316 67.4607 30.2177 67.8022 29.6733V27.8457C67.4423 27.292 66.8791 26.9874 66.2423 26.9874C65.2549 26.9874 64.5905 27.7718 64.5905 28.7595C64.5905 29.7471 65.2549 30.5316 66.2423 30.5316ZM66.1501 26.2491C66.8422 26.2491 67.3868 26.5168 67.8022 26.9874V24.1631H68.5866V31.0853H67.8022V30.5316C67.3868 31.0024 66.8422 31.2701 66.1501 31.2701C64.6916 31.2701 63.7598 30.1162 63.7598 28.7595C63.7598 27.4027 64.6916 26.2491 66.1501 26.2491Z" fill="#274085"/>
<path d="M72.3612 28.1707H75.1489C75.121 27.4877 74.6504 26.9154 73.8287 26.9154C73.0626 26.9154 72.5275 27.3677 72.3612 28.1707ZM74.0412 31.272C72.472 31.272 71.5029 30.1181 71.5029 28.7613C71.5029 27.3491 72.4074 26.251 73.8473 26.251C75.1117 26.251 75.9333 27.1372 75.9333 28.2815C75.9333 28.466 75.9054 28.6413 75.8778 28.7704H72.306C72.3336 29.8873 73.0445 30.5611 74.0412 30.5611C74.6411 30.5611 75.1489 30.2841 75.4535 29.8687L76.0348 30.321C75.6008 30.9026 74.9088 31.272 74.0412 31.272Z" fill="#274085"/>
<path d="M83.8611 24.1631H83.0767V31.0853H83.8611V24.1631Z" fill="#274085"/>
<path d="M88.5764 30.5704C89.1949 30.5704 89.7024 30.2751 90.007 29.7766V28.8628L88.6316 29.0936C87.9948 29.2043 87.7088 29.4903 87.7088 29.8873C87.7088 30.2841 88.032 30.5704 88.5764 30.5704ZM86.915 29.9152C86.915 29.2136 87.4504 28.7151 88.4381 28.5489L90.007 28.2905V27.9676C90.007 27.3215 89.5454 26.9523 88.881 26.9523C88.3456 26.9523 87.912 27.2017 87.6257 27.5984L87.0351 27.1462C87.4411 26.5925 88.0965 26.251 88.9086 26.251C90.0901 26.251 90.7915 26.9433 90.7915 27.9676V31.0872H90.007V30.4965C89.6562 30.9488 89.047 31.2165 88.4473 31.2165C87.5335 31.2165 86.915 30.7087 86.915 29.9152Z" fill="#274085"/>
<path d="M101.658 29.8504L102.276 30.321C101.842 30.9026 101.168 31.272 100.319 31.272C98.7779 31.272 97.7905 30.1181 97.7905 28.7613C97.7905 27.4046 98.7779 26.251 100.319 26.251C101.159 26.251 101.842 26.6294 102.276 27.2017L101.658 27.6723C101.372 27.2662 100.901 26.9892 100.319 26.9892C99.3226 26.9892 98.6119 27.7737 98.6119 28.7613C98.6119 29.758 99.3226 30.5335 100.329 30.5335C100.901 30.5335 101.372 30.2565 101.658 29.8504Z" fill="#274085"/>
<path d="M108.643 28.7613C108.643 27.7923 107.932 26.9892 106.963 26.9892C105.966 26.9892 105.255 27.7923 105.255 28.7613C105.255 29.7304 105.966 30.5335 106.963 30.5335C107.932 30.5335 108.643 29.7214 108.643 28.7613ZM109.473 28.7613C109.473 30.1181 108.449 31.272 106.954 31.272C105.449 31.272 104.434 30.1181 104.434 28.7613C104.434 27.4046 105.449 26.251 106.954 26.251C108.449 26.251 109.473 27.4046 109.473 28.7613Z" fill="#274085"/>
<path d="M112.4 24.1631H113.185V26.9597C113.563 26.5444 114.043 26.2491 114.735 26.2491C115.779 26.2491 116.554 26.9504 116.554 28.2703V31.0853H115.769V28.2979C115.769 27.4672 115.308 26.9874 114.579 26.9874C113.896 26.9874 113.48 27.3841 113.185 27.8643V31.0853H112.4V24.1631Z" fill="#274085"/>
<path d="M121.387 25.6954L122.347 24.1631H123.233L122.153 25.6954H121.387ZM120.252 28.1689H123.039C123.011 27.4858 122.541 26.9135 121.719 26.9135C120.953 26.9135 120.418 27.3658 120.252 28.1689ZM121.932 31.2701C120.363 31.2701 119.394 30.1162 119.394 28.7595C119.394 27.3472 120.298 26.2491 121.738 26.2491C123.002 26.2491 123.824 27.1353 123.824 28.2796C123.824 28.4642 123.796 28.6394 123.768 28.7685H120.197C120.224 29.8855 120.935 30.5592 121.932 30.5592C122.532 30.5592 123.039 30.2822 123.344 29.8669L123.925 30.3191C123.491 30.9007 122.799 31.2701 121.932 31.2701Z" fill="#274085"/>
<path d="M126.835 29.9795C127.158 30.3858 127.545 30.6166 128.016 30.6166C128.533 30.6166 128.828 30.3027 128.828 29.8966C128.828 28.8535 126.503 29.2229 126.503 27.5799C126.503 26.8509 127.121 26.251 128.016 26.251C128.681 26.251 129.253 26.5649 129.576 27.0169L129.031 27.4784C128.782 27.1276 128.432 26.9061 128.025 26.9061C127.527 26.9061 127.259 27.2017 127.259 27.5615C127.259 28.6044 129.594 28.2722 129.594 29.8597C129.585 30.7273 128.893 31.272 128.025 31.272C127.287 31.272 126.706 30.9764 126.281 30.4503L126.835 29.9795Z" fill="#274085"/>
<path d="M132.527 26.434H133.312V31.0856H132.527V26.434ZM132.37 24.6711C132.37 24.3758 132.619 24.1265 132.924 24.1265C133.228 24.1265 133.468 24.3758 133.468 24.6711C133.468 24.9757 133.228 25.2248 132.924 25.2248C132.619 25.2248 132.37 24.9757 132.37 24.6711Z" fill="#274085"/>
<path d="M140.448 28.7613C140.448 27.7923 139.737 26.9892 138.768 26.9892C137.771 26.9892 137.06 27.7923 137.06 28.7613C137.06 29.7304 137.771 30.5335 138.768 30.5335C139.737 30.5335 140.448 29.7214 140.448 28.7613ZM141.278 28.7613C141.278 30.1181 140.254 31.272 138.759 31.272C137.254 31.272 136.239 30.1181 136.239 28.7613C136.239 27.4046 137.254 26.251 138.759 26.251C140.254 26.251 141.278 27.4046 141.278 28.7613Z" fill="#274085"/>
<path d="M144.201 26.4355H144.986V26.9616C145.364 26.5463 145.844 26.251 146.536 26.251C147.579 26.251 148.355 26.9523 148.355 28.2722V31.0872H147.57V28.2998C147.57 27.4691 147.099 26.9892 146.379 26.9892C145.705 26.9892 145.281 27.377 144.986 27.8661V31.0872H144.201V26.4355Z" fill="#274085"/>
<path d="M66.2423 42.0692C66.8886 42.0692 67.4607 41.7555 67.8022 41.2109V39.3833C67.4423 38.8296 66.8791 38.525 66.2423 38.525C65.2549 38.525 64.5905 39.3097 64.5905 40.2971C64.5905 41.2847 65.2549 42.0692 66.2423 42.0692ZM66.1501 37.7867C66.8422 37.7867 67.3868 38.0544 67.8022 38.525V35.7007H68.5866V42.6231H67.8022V42.0692C67.3868 42.54 66.8422 42.8077 66.1501 42.8077C64.6916 42.8077 63.7598 41.6538 63.7598 40.2971C63.7598 38.9403 64.6916 37.7867 66.1501 37.7867Z" fill="#274085"/>
<path d="M72.3612 39.7044H75.1489C75.121 39.0214 74.6504 38.4494 73.8287 38.4494C73.0626 38.4494 72.5275 38.9014 72.3612 39.7044ZM74.0412 42.8057C72.472 42.8057 71.5029 41.6518 71.5029 40.295C71.5029 38.883 72.4074 37.7847 73.8473 37.7847C75.1117 37.7847 75.9333 38.6709 75.9333 39.8152C75.9333 40 75.9054 40.1753 75.8778 40.3043H72.306C72.3336 41.4213 73.0445 42.0948 74.0412 42.0948C74.6411 42.0948 75.1489 41.8181 75.4535 41.4027L76.0348 41.8552C75.6008 42.4366 74.9088 42.8057 74.0412 42.8057Z" fill="#274085"/>
<path d="M78.9453 41.5134C79.2682 41.9198 79.6559 42.1503 80.1265 42.1503C80.6436 42.1503 80.9389 41.8366 80.9389 41.4303C80.9389 40.3877 78.6131 40.7566 78.6131 39.1138C78.6131 38.3846 79.2313 37.7847 80.1265 37.7847C80.7912 37.7847 81.3635 38.0986 81.6867 38.5505L81.142 39.0124C80.8927 38.6616 80.5419 38.4401 80.1361 38.4401C79.6376 38.4401 79.3699 38.7354 79.3699 39.0952C79.3699 40.1384 81.7048 39.8061 81.7048 41.3934C81.6957 42.261 81.0034 42.8057 80.1361 42.8057C79.3976 42.8057 78.816 42.5101 78.3916 41.9843L78.9453 41.5134Z" fill="#274085"/>
<path d="M89.0585 38.6817H88.1816V37.971H89.0585V36.8081H89.852V37.971H91.4675V38.6817H89.852V41.063C89.852 41.7922 90.2214 41.9954 90.7844 41.9954C91.089 41.9954 91.3012 41.9582 91.4765 41.8846V42.586C91.255 42.6781 91.0059 42.7153 90.6737 42.7153C89.6401 42.7153 89.0585 42.1983 89.0585 41.063V38.6817Z" fill="#274085"/>
<path d="M94.6972 39.7044H97.4845C97.4569 39.0214 96.9861 38.4494 96.1647 38.4494C95.3988 38.4494 94.8631 38.9014 94.6972 39.7044ZM96.3771 42.8057C94.8079 42.8057 93.8389 41.6518 93.8389 40.295C93.8389 38.883 94.7434 37.7847 96.1833 37.7847C97.4479 37.7847 98.269 38.6709 98.269 39.8152C98.269 40 98.2414 40.1753 98.2138 40.3043H94.6417C94.6696 41.4213 95.3802 42.0948 96.3771 42.0948C96.977 42.0948 97.4845 41.8181 97.7891 41.4027L98.3707 41.8552C97.9368 42.4366 97.2445 42.8057 96.3771 42.8057Z" fill="#274085"/>
<path d="M101.258 37.9691H102.043V38.5504C102.385 38.1446 102.809 37.877 103.4 37.877C103.547 37.877 103.686 37.8955 103.797 37.9322V38.6983C103.658 38.6614 103.52 38.6431 103.335 38.6431C102.726 38.6431 102.329 38.9567 102.043 39.4276V42.621H101.258V37.9691Z" fill="#274085"/>
<path d="M106.585 37.9691H107.37V38.5504C107.712 38.1446 108.136 37.877 108.727 37.877C108.875 37.877 109.013 37.8955 109.124 37.9322V38.6983C108.985 38.6614 108.847 38.6431 108.662 38.6431C108.053 38.6431 107.656 38.9567 107.37 39.4276V42.621H106.585V37.9691Z" fill="#274085"/>
<path d="M111.911 37.9713H112.695V42.6232H111.911V37.9713ZM111.754 36.2085C111.754 35.9132 112.003 35.6641 112.308 35.6641C112.612 35.6641 112.852 35.9132 112.852 36.2085C112.852 36.5131 112.612 36.7622 112.308 36.7622C112.003 36.7622 111.754 36.5131 111.754 36.2085Z" fill="#274085"/>
<path d="M116.282 38.6817H115.406V37.971H116.282V36.8081H117.076V37.971H118.692V38.6817H117.076V41.063C117.076 41.7922 117.446 41.9954 118.009 41.9954C118.313 41.9954 118.525 41.9582 118.701 41.8846V42.586C118.479 42.6781 118.23 42.7153 117.898 42.7153C116.864 42.7153 116.282 42.1983 116.282 41.063V38.6817Z" fill="#274085"/>
<path d="M125.273 40.295C125.273 39.326 124.562 38.5229 123.593 38.5229C122.596 38.5229 121.886 39.326 121.886 40.295C121.886 41.2641 122.596 42.0671 123.593 42.0671C124.562 42.0671 125.273 41.2551 125.273 40.295ZM126.104 40.295C126.104 41.6518 125.08 42.8057 123.584 42.8057C122.08 42.8057 121.064 41.6518 121.064 40.295C121.064 38.9383 122.08 37.7847 123.584 37.7847C125.08 37.7847 126.104 38.9383 126.104 40.295Z" fill="#274085"/>
<path d="M129.028 37.9713H129.813V42.6232H129.028V37.9713ZM128.872 36.2085C128.872 35.9132 129.121 35.6641 129.425 35.6641C129.73 35.6641 129.97 35.9132 129.97 36.2085C129.97 36.5131 129.73 36.7622 129.425 36.7622C129.121 36.7622 128.872 36.5131 128.872 36.2085Z" fill="#274085"/>
<path d="M133.138 37.9691H133.922V38.5504C134.264 38.1446 134.688 37.877 135.279 37.877C135.427 37.877 135.565 37.8955 135.676 37.9322V38.6983C135.537 38.6614 135.399 38.6431 135.214 38.6431C134.605 38.6431 134.208 38.9567 133.922 39.4276V42.621H133.138V37.9691Z" fill="#274085"/>
<path d="M138.646 39.7044H141.433C141.406 39.0214 140.935 38.4494 140.114 38.4494C139.348 38.4494 138.812 38.9014 138.646 39.7044ZM140.326 42.8057C138.757 42.8057 137.788 41.6518 137.788 40.295C137.788 38.883 138.692 37.7847 140.132 37.7847C141.397 37.7847 142.218 38.6709 142.218 39.8152C142.218 40 142.19 40.1753 142.163 40.3043H138.591C138.619 41.4213 139.329 42.0948 140.326 42.0948C140.926 42.0948 141.433 41.8181 141.738 41.4027L142.319 41.8552C141.886 42.4366 141.194 42.8057 140.326 42.8057Z" fill="#274085"/>
<path d="M145.227 41.5134C145.55 41.9198 145.937 42.1503 146.408 42.1503C146.925 42.1503 147.22 41.8366 147.22 41.4303C147.22 40.3877 144.894 40.7566 144.894 39.1138C144.894 38.3846 145.513 37.7847 146.408 37.7847C147.073 37.7847 147.645 38.0986 147.968 38.5505L147.423 39.0124C147.174 38.6616 146.823 38.4401 146.417 38.4401C145.919 38.4401 145.651 38.7354 145.651 39.0952C145.651 40.1384 147.986 39.8061 147.986 41.3934C147.977 42.261 147.285 42.8057 146.417 42.8057C145.679 42.8057 145.097 42.5101 144.673 41.9843L145.227 41.5134Z" fill="#274085"/>
</svg>
